<svg width="690" height="566" viewBox="0 0 690 566" fill="none" xmlns="http://www.w3.org/2000/svg">
<g clip-path="url(#clip0)">
<path d="M158.186 114.445L161.124 356.989L288.046 418.869L285.109 176.326L158.186 114.445Z" fill="#E5E7EB"/>
<path d="M119.618 95.0698L24.7784 289.942L153.462 352.682L150.525 110.138L119.618 95.0698Z" fill="#E5E7EB"/>
<path d="M690 368.832L433.853 243.948L436.79 486.492L595.161 563.705L690 368.832Z" fill="#E5E7EB"/>
<path d="M296.582 176.326L299.52 418.869L426.441 480.749L423.504 238.206L296.582 176.326Z" fill="#E5E7EB"/>
<path d="M583.059 186.657L567.121 187.275L567.916 207.786L583.854 207.167L583.059 186.657Z" fill="#6C63FF"/>
<path d="M511.162 258.489C511.162 258.489 489.09 247.934 489.443 257.05C489.797 266.165 511.692 272.163 511.692 272.163L511.162 258.489Z" fill="#FFB9B9"/>
<path d="M523.272 335.619C523.272 335.619 512.858 361.13 509.011 379.538C505.164 397.946 499.304 423.28 506.841 441.246C514.378 459.213 535.807 512.017 536.027 517.714C536.248 523.411 534.192 529.197 538.746 529.02C543.3 528.844 568.08 521.035 569.086 517.572C570.092 514.109 560.632 505.347 560.632 505.347L537.27 432.077L561.644 384.342L579.225 455.554L582.669 544.433C582.669 544.433 599.569 539.213 602.022 543.682C602.022 543.682 609.594 533.118 610.556 528.515C611.518 523.913 606.98 436.218 606.98 436.218C606.98 436.218 622.493 336.333 609.97 336.819C597.447 337.305 548.396 307.256 523.272 335.619Z" fill="#2F2E41"/>
<path d="M538.569 524.462C538.569 524.462 527.017 550.017 525.923 551.2C524.829 552.384 517.301 564.088 522.993 563.867C528.686 563.646 542.126 557.419 552.019 547.905C561.912 538.392 574.955 521.909 573.773 520.814C572.59 519.718 564.488 516.609 564.488 516.609L538.569 524.462Z" fill="#2F2E41"/>
<path d="M584.725 538.648C584.725 538.648 584.028 550.086 581.928 554.733C579.827 559.379 580.092 566.216 585.785 565.995C591.477 565.774 606.188 562.92 606.188 562.92C606.188 562.92 607.062 556.039 605.879 554.944C604.697 553.849 599.657 541.491 601.802 537.985C603.946 534.478 584.725 538.648 584.725 538.648Z" fill="#2F2E41"/>
<path d="M593.146 167.436C593.146 167.436 605.281 186.365 610.012 190.746C614.742 195.127 601.434 204.773 601.434 204.773L577.615 207.98C577.615 207.98 577.914 186.286 576.688 184.051C575.461 181.816 593.146 167.436 593.146 167.436Z" fill="#FFB9B9"/>
<path d="M572.443 192.204C572.443 192.204 577.35 201.143 581.904 200.966C586.457 200.79 610.012 190.746 611.018 187.283C612.024 183.821 618.82 212.087 618.82 212.087L561.184 313.607L547.125 303.882L553.937 244.276L559.532 212.105L572.443 192.204Z" fill="#F9F9F9"/>
<path d="M613.144 283.06C610.844 287.874 609.409 292.894 609.608 298.033C609.616 298.261 609.625 298.489 609.646 298.716C610.191 309.262 614.073 321.459 615.465 330.329C616.476 336.692 616.188 341.337 612.468 342.428C603.449 345.061 613.783 346.942 578.888 358.567C543.994 370.192 537.904 360.158 537.816 357.879C537.728 355.6 542.758 338.287 541.575 337.191C540.393 336.096 525.028 351.528 520.386 349.426C515.744 347.323 519.856 335.752 519.856 335.752C519.856 335.752 530.314 311.381 530.093 305.684C529.872 299.987 545.934 273.116 545.934 273.116L556.858 201.938C556.858 201.938 561.058 192.646 566.707 191.286C572.355 189.925 577.041 193.167 577.041 193.167L567.589 214.075L557.618 250.98L559.286 264.609C559.286 264.609 570.882 240.194 578.498 230.769C586.114 221.344 602.352 199.032 602.352 199.032C602.352 199.032 606.143 186.229 603.281 182.403C600.418 178.565 615.218 177.991 621.529 193.722C624.873 202.06 630.303 214.494 633.705 226.07C636.736 236.326 638.167 245.913 635.164 251.394C630.575 259.765 619.029 270.77 613.144 283.06Z" fill="#5AA9E6"/>
<path opacity="0.1" d="M635.164 251.394C630.575 259.765 619.029 270.77 613.143 283.06C611.606 277.517 609.731 271.781 609.731 271.781C609.731 271.781 602.537 233.26 623.815 223.305C627.34 222.963 630.866 223.949 633.705 226.07C636.736 236.326 638.167 245.913 635.164 251.394Z" fill="black"/>
<path d="M550.699 248.966L532.66 254.231L507.614 255.203L505.038 276.986L546.198 279.953C546.198 279.953 556.479 251.024 550.699 248.966Z" fill="#5AA9E6"/>
<path d="M580.113 322.206C580.113 322.206 555.981 326.213 561.489 333.482C566.997 340.75 588.375 333.108 588.375 333.108L580.113 322.206Z" fill="#FFB9B9"/>
<path opacity="0.1" d="M609.646 298.716C610.191 309.262 614.073 321.459 615.465 330.329C607.778 337.612 600.467 344.035 597.712 344.142C592.02 344.363 582.868 343.577 579.497 344.849C576.126 346.121 574.149 324.515 574.149 324.515C574.149 324.515 576.161 317.59 585.136 313.818C591.194 311.266 602.806 304.345 609.646 298.716Z" fill="black"/>
<path d="M623.55 216.468C623.55 216.468 642.815 213.438 641.774 245.431C640.734 277.425 643.805 297.847 636.057 303.853C628.308 309.86 603.139 337.084 597.447 337.305C591.755 337.526 582.603 336.74 579.232 338.012C575.861 339.284 573.884 317.678 573.884 317.678C573.884 317.678 575.896 310.753 584.871 306.981C593.846 303.209 614.991 289.836 614.814 285.278C614.638 280.72 609.466 264.944 609.466 264.944C609.466 264.944 602.273 226.423 623.55 216.468Z" fill="#5AA9E6"/>
<path d="M576.158 195.465C590.001 195.465 601.222 184.233 601.222 170.377C601.222 156.522 590.001 145.29 576.158 145.29C562.315 145.29 551.093 156.522 551.093 170.377C551.093 184.233 562.315 195.465 576.158 195.465Z" fill="#FFB9B9"/>
<path d="M559.281 134.42C558.677 134.941 557.953 135.305 557.174 135.479C556.783 135.548 556.38 135.461 556.053 135.234C555.727 135.008 555.503 134.661 555.431 134.27C554.857 135.461 554.21 136.729 553.04 137.34C551.869 137.951 550.058 137.439 549.89 136.128C549.719 137.123 549.279 138.053 548.618 138.815C547.891 139.509 546.574 139.684 545.94 138.905C546.452 141.71 546.136 144.594 546.297 147.44C546.458 150.287 547.216 153.305 549.365 155.177C552.499 157.907 557.211 157.233 561.333 156.716C561.957 156.585 562.603 156.62 563.209 156.818C564.752 157.476 564.682 159.627 564.703 161.306C564.829 164.252 565.994 167.058 567.991 169.226C569.988 171.394 572.688 172.783 575.612 173.147C577.248 173.4 578.918 172.992 580.253 172.013C581.424 171.02 582.022 169.402 583.363 168.656C585.544 167.443 588.19 169.212 589.785 171.134C591.38 173.055 592.952 175.418 595.423 175.77C598.69 176.235 601.179 172.902 602.4 169.832C604.085 165.531 604.892 160.935 604.774 156.316C604.656 151.697 603.615 147.148 601.713 142.938C594.89 128.051 571.581 125.697 559.281 134.42Z" fill="#2F2E41"/>
<path d="M426.642 155.085C455.158 155.085 478.274 131.948 478.274 103.407C478.274 74.8653 455.158 51.728 426.642 51.728C398.126 51.728 375.01 74.8653 375.01 103.407C375.01 131.948 398.126 155.085 426.642 155.085Z" fill="#FFE45E"/>
<path d="M370.47 48.8833C382.366 61.0966 400.64 62.5759 400.64 62.5759C400.64 62.5759 399.627 44.2534 387.731 32.0401C375.835 19.8267 357.561 18.3474 357.561 18.3474C357.561 18.3474 358.574 36.6699 370.47 48.8833Z" fill="#3F3D56"/>
<path d="M374.46 42.6059C390.914 47.0478 401.114 62.2966 401.114 62.2966C401.114 62.2966 384.636 70.3437 368.183 65.9018C351.729 61.4599 341.53 46.2111 341.53 46.2111C341.53 46.2111 358.007 38.164 374.46 42.6059Z" fill="#FFE45E"/>
<path d="M390.612 30.9609C390.721 48.0175 402.862 61.7674 402.862 61.7674C402.862 61.7674 414.827 47.8631 414.718 30.8065C414.609 13.7499 402.467 0 402.467 0C402.467 0 390.503 13.9043 390.612 30.9609Z" fill="#3F3D56"/>
<path d="M397.836 29.208C406.613 43.8286 403.397 61.8945 403.397 61.8945C403.397 61.8945 385.95 56.2557 377.173 41.635C368.396 27.0144 371.612 8.94846 371.612 8.94846C371.612 8.94846 389.059 14.5873 397.836 29.208Z" fill="#FFE45E"/>
<path d="M421.97 125.996C436.624 125.996 448.503 114.106 448.503 99.4393C448.503 84.7723 436.624 72.8823 421.97 72.8823C407.316 72.8823 395.437 84.7723 395.437 99.4393C395.437 114.106 407.316 125.996 421.97 125.996Z" fill="#F2F2F2"/>
<path d="M409.553 116.269C414.305 116.269 418.158 112.413 418.158 107.656C418.158 102.899 414.305 99.0432 409.553 99.0432C404.8 99.0432 400.947 102.899 400.947 107.656C400.947 112.413 404.8 116.269 409.553 116.269Z" fill="#3F3D56"/>
<path d="M672.651 564.094H403.734V565.529H672.651V564.094Z" fill="#C8C8C8"/>
<path d="M492.367 128.651H146.719V336.082H492.367V128.651Z" fill="#F9F9F9"/>
<path d="M160.344 140.135C162.324 140.135 163.929 138.528 163.929 136.546C163.929 134.564 162.324 132.957 160.344 132.957C158.363 132.957 156.758 134.564 156.758 136.546C156.758 138.528 158.363 140.135 160.344 140.135Z" fill="#FF6392"/>
<path d="M173.252 140.135C175.232 140.135 176.837 138.528 176.837 136.546C176.837 134.564 175.232 132.957 173.252 132.957C171.271 132.957 169.666 134.564 169.666 136.546C169.666 138.528 171.271 140.135 173.252 140.135Z" fill="#5AA9E6"/>
<path d="M186.16 140.135C188.14 140.135 189.745 138.528 189.745 136.546C189.745 134.564 188.14 132.957 186.16 132.957C184.179 132.957 182.574 134.564 182.574 136.546C182.574 138.528 184.179 140.135 186.16 140.135Z" fill="#FFE45E"/>
<path d="M492.367 144.572H147.008V146.007H492.367V144.572Z" fill="#2F2E41"/>
<path opacity="0.1" d="M348.227 209.039H305.917V251.387H348.227V209.039Z" fill="black"/>
<path d="M32.0742 539.296C32.0742 540.474 31.8691 541.508 31.459 542.398C31.0547 543.289 30.4746 543.975 29.7188 544.455C28.9629 544.936 28.0898 545.176 27.0996 545.176C25.6055 545.176 24.3984 544.643 23.4785 543.576C22.5586 542.504 22.0986 541.06 22.0986 539.243V537.925C22.0986 536.759 22.3037 535.728 22.7139 534.831C23.1299 533.929 23.7158 533.237 24.4717 532.757C25.2275 532.271 26.0977 532.027 27.082 532.027C28.0664 532.027 28.9336 532.265 29.6836 532.739C30.4395 533.214 31.0225 533.885 31.4326 534.752C31.8428 535.619 32.0566 536.624 32.0742 537.767V539.296ZM30.9932 537.907C30.9932 536.366 30.6445 535.159 29.9473 534.286C29.25 533.413 28.2949 532.977 27.082 532.977C25.8926 532.977 24.9434 533.416 24.2344 534.295C23.5312 535.168 23.1797 536.39 23.1797 537.96V539.296C23.1797 540.813 23.5312 542.018 24.2344 542.908C24.9375 543.793 25.8926 544.235 27.0996 544.235C28.3242 544.235 29.2793 543.799 29.9648 542.926C30.6504 542.047 30.9932 540.825 30.9932 539.261V537.907ZM41.3899 543.796C40.7571 544.716 39.7464 545.176 38.3577 545.176C37.344 545.176 36.5735 544.883 36.0462 544.297C35.5188 543.705 35.2493 542.832 35.2376 541.678V535.49H36.2835V541.546C36.2835 543.356 37.0159 544.262 38.4807 544.262C40.0042 544.262 40.968 543.632 41.3723 542.372V535.49H42.427V545H41.4075L41.3899 543.796ZM50.2838 536.387C50.0611 536.346 49.8238 536.325 49.5718 536.325C48.9156 536.325 48.3589 536.51 47.9019 536.879C47.4507 537.242 47.1285 537.772 46.9351 538.47V545H45.8892V535.49H46.9175L46.9351 537.002C47.4918 535.877 48.3853 535.314 49.6158 535.314C49.9088 535.314 50.1402 535.353 50.3101 535.429L50.2838 536.387ZM63.7736 545C63.6681 544.701 63.6007 544.259 63.5714 543.673C63.2023 544.153 62.7306 544.525 62.1564 544.789C61.588 545.047 60.9845 545.176 60.3458 545.176C59.4318 545.176 58.6905 544.921 58.1222 544.411C57.5597 543.901 57.2784 543.257 57.2784 542.478C57.2784 541.552 57.6622 540.819 58.4298 540.28C59.2032 539.741 60.2784 539.472 61.6554 539.472H63.5626V538.391C63.5626 537.711 63.3517 537.178 62.9298 536.791C62.5138 536.398 61.9044 536.202 61.1017 536.202C60.3693 536.202 59.7628 536.39 59.2823 536.765C58.8019 537.14 58.5616 537.591 58.5616 538.118L57.507 538.109C57.507 537.354 57.8585 536.7 58.5616 536.149C59.2648 535.593 60.129 535.314 61.1544 535.314C62.215 535.314 63.0499 535.581 63.6593 536.114C64.2745 536.642 64.5909 537.38 64.6085 538.329V542.829C64.6085 543.749 64.7052 544.438 64.8986 544.895V545H63.7736ZM60.4689 544.244C61.172 544.244 61.7989 544.074 62.3497 543.734C62.9064 543.395 63.3107 542.94 63.5626 542.372V540.28H61.6818C60.6329 540.292 59.8126 540.485 59.2208 540.86C58.629 541.229 58.3331 541.739 58.3331 542.39C58.3331 542.923 58.5294 543.365 58.922 543.717C59.3204 544.068 59.8361 544.244 60.4689 544.244ZM75.7875 540.342C75.7875 541.824 75.4594 543.002 74.8031 543.875C74.1469 544.742 73.268 545.176 72.1664 545.176C70.8656 545.176 69.8695 544.719 69.1781 543.805V548.656H68.1322V535.49H69.1078L69.1605 536.835C69.8461 535.821 70.8393 535.314 72.14 535.314C73.2768 535.314 74.1674 535.745 74.8119 536.606C75.4623 537.468 75.7875 538.663 75.7875 540.192V540.342ZM74.7328 540.157C74.7328 538.944 74.4838 537.986 73.9857 537.283C73.4877 536.58 72.7934 536.229 71.9027 536.229C71.2582 536.229 70.7045 536.384 70.2416 536.694C69.7787 537.005 69.4242 537.456 69.1781 538.048V542.609C69.4301 543.154 69.7904 543.57 70.2592 543.857C70.7279 544.145 71.2816 544.288 71.9203 544.288C72.8051 544.288 73.4936 543.937 73.9857 543.233C74.4838 542.524 74.7328 541.499 74.7328 540.157ZM86.4919 540.342C86.4919 541.824 86.1637 543.002 85.5075 543.875C84.8512 544.742 83.9723 545.176 82.8708 545.176C81.57 545.176 80.5739 544.719 79.8825 543.805V548.656H78.8366V535.49H79.8122L79.8649 536.835C80.5505 535.821 81.5436 535.314 82.8444 535.314C83.9811 535.314 84.8718 535.745 85.5163 536.606C86.1667 537.468 86.4919 538.663 86.4919 540.192V540.342ZM85.4372 540.157C85.4372 538.944 85.1882 537.986 84.6901 537.283C84.1921 536.58 83.4977 536.229 82.6071 536.229C81.9626 536.229 81.4089 536.384 80.946 536.694C80.4831 537.005 80.1286 537.456 79.8825 538.048V542.609C80.1345 543.154 80.4948 543.57 80.9636 543.857C81.4323 544.145 81.986 544.288 82.6247 544.288C83.5095 544.288 84.1979 543.937 84.6901 543.233C85.1882 542.524 85.4372 541.499 85.4372 540.157ZM95.6926 537.099C96.0383 536.53 96.4807 536.091 97.0198 535.78C97.5588 535.47 98.1477 535.314 98.7864 535.314C99.8059 535.314 100.565 535.602 101.063 536.176C101.561 536.75 101.813 537.611 101.819 538.76V545H100.773V538.751C100.767 537.901 100.585 537.269 100.228 536.853C99.8762 536.437 99.3108 536.229 98.5315 536.229C97.8811 536.229 97.3039 536.434 96.8 536.844C96.302 537.248 95.9329 537.796 95.6926 538.487V545H94.6467V531.5H95.6926V537.099ZM108.928 545.176C108.12 545.176 107.387 544.977 106.731 544.578C106.081 544.18 105.574 543.626 105.21 542.917C104.847 542.202 104.666 541.402 104.666 540.518V540.14C104.666 539.226 104.841 538.402 105.193 537.67C105.55 536.938 106.045 536.363 106.678 535.947C107.311 535.525 107.997 535.314 108.735 535.314C109.889 535.314 110.803 535.71 111.477 536.501C112.157 537.286 112.497 538.361 112.497 539.727V540.315H105.711V540.518C105.711 541.596 106.019 542.495 106.634 543.216C107.255 543.931 108.035 544.288 108.972 544.288C109.535 544.288 110.03 544.186 110.458 543.98C110.891 543.775 111.284 543.447 111.635 542.996L112.294 543.497C111.521 544.616 110.399 545.176 108.928 545.176ZM108.735 536.211C107.944 536.211 107.276 536.501 106.731 537.081C106.192 537.661 105.864 538.44 105.747 539.419H111.451V539.305C111.421 538.391 111.161 537.646 110.668 537.072C110.176 536.498 109.532 536.211 108.735 536.211ZM116.442 545H115.387V531.5H116.442V545ZM127.674 540.342C127.674 541.824 127.346 543.002 126.69 543.875C126.033 544.742 125.154 545.176 124.053 545.176C122.752 545.176 121.756 544.719 121.065 543.805V548.656H120.019V535.49H120.994L121.047 536.835C121.732 535.821 122.726 535.314 124.026 535.314C125.163 535.314 126.054 535.745 126.698 536.606C127.349 537.468 127.674 538.663 127.674 540.192V540.342ZM126.619 540.157C126.619 538.944 126.37 537.986 125.872 537.283C125.374 536.58 124.68 536.229 123.789 536.229C123.145 536.229 122.591 536.384 122.128 536.694C121.665 537.005 121.311 537.456 121.065 538.048V542.609C121.316 543.154 121.677 543.57 122.146 543.857C122.614 544.145 123.168 544.288 123.807 544.288C124.691 544.288 125.38 543.937 125.872 543.233C126.37 542.524 126.619 541.499 126.619 540.157ZM136.427 542.583C136.427 542.062 136.216 541.643 135.794 541.326C135.378 541.01 134.748 540.764 133.905 540.588C133.061 540.406 132.405 540.201 131.936 539.973C131.473 539.738 131.127 539.454 130.899 539.12C130.676 538.786 130.565 538.382 130.565 537.907C130.565 537.157 130.878 536.539 131.505 536.053C132.132 535.561 132.935 535.314 133.913 535.314C134.974 535.314 135.824 535.578 136.462 536.105C137.107 536.627 137.429 537.31 137.429 538.153H136.374C136.374 537.597 136.14 537.134 135.671 536.765C135.208 536.396 134.622 536.211 133.913 536.211C133.222 536.211 132.665 536.366 132.244 536.677C131.827 536.981 131.619 537.38 131.619 537.872C131.619 538.347 131.792 538.716 132.138 538.979C132.49 539.237 133.125 539.475 134.045 539.691C134.971 539.908 135.662 540.14 136.119 540.386C136.582 540.632 136.925 540.928 137.148 541.273C137.37 541.619 137.482 542.038 137.482 542.53C137.482 543.333 137.157 543.975 136.506 544.455C135.862 544.936 135.018 545.176 133.975 545.176C132.868 545.176 131.968 544.909 131.277 544.376C130.591 543.837 130.248 543.157 130.248 542.337H131.303C131.344 542.952 131.602 543.433 132.077 543.778C132.557 544.118 133.19 544.288 133.975 544.288C134.707 544.288 135.299 544.127 135.75 543.805C136.202 543.482 136.427 543.075 136.427 542.583ZM148.686 543.488L151.464 535.49H152.598L148.537 546.617L148.326 547.109C147.805 548.264 146.999 548.841 145.909 548.841C145.657 548.841 145.388 548.8 145.101 548.718L145.092 547.848L145.637 547.9C146.152 547.9 146.568 547.771 146.885 547.514C147.207 547.262 147.479 546.825 147.702 546.204L148.168 544.921L144.582 535.49H145.733L148.686 543.488ZM154.232 540.104C154.232 539.19 154.407 538.367 154.759 537.635C155.116 536.902 155.617 536.334 156.262 535.93C156.912 535.52 157.648 535.314 158.468 535.314C159.734 535.314 160.759 535.76 161.544 536.65C162.329 537.535 162.722 538.71 162.722 540.175V540.395C162.722 541.314 162.543 542.144 162.186 542.882C161.834 543.614 161.336 544.18 160.692 544.578C160.047 544.977 159.312 545.176 158.486 545.176C157.226 545.176 156.2 544.733 155.409 543.849C154.624 542.958 154.232 541.78 154.232 540.315V540.104ZM155.286 540.395C155.286 541.531 155.579 542.466 156.165 543.198C156.757 543.925 157.53 544.288 158.486 544.288C159.435 544.288 160.202 543.925 160.788 543.198C161.38 542.466 161.676 541.502 161.676 540.307V540.104C161.676 539.378 161.541 538.713 161.272 538.109C161.002 537.506 160.624 537.04 160.138 536.712C159.652 536.378 159.095 536.211 158.468 536.211C157.53 536.211 156.766 536.58 156.174 537.318C155.582 538.051 155.286 539.012 155.286 540.201V540.395ZM171.739 543.796C171.106 544.716 170.095 545.176 168.707 545.176C167.693 545.176 166.922 544.883 166.395 544.297C165.868 543.705 165.598 542.832 165.586 541.678V535.49H166.632V541.546C166.632 543.356 167.365 544.262 168.83 544.262C170.353 544.262 171.317 543.632 171.721 542.372V535.49H172.776V545H171.756L171.739 543.796ZM184.851 544.288C185.583 544.288 186.195 544.083 186.688 543.673C187.186 543.257 187.455 542.721 187.496 542.064H188.507C188.478 542.645 188.296 543.175 187.962 543.655C187.628 544.13 187.183 544.502 186.626 544.771C186.075 545.041 185.483 545.176 184.851 545.176C183.603 545.176 182.612 544.742 181.88 543.875C181.153 543.008 180.79 541.842 180.79 540.377V540.061C180.79 539.123 180.954 538.294 181.282 537.573C181.61 536.853 182.079 536.296 182.689 535.903C183.304 535.511 184.022 535.314 184.842 535.314C185.885 535.314 186.743 535.625 187.417 536.246C188.097 536.867 188.46 537.685 188.507 538.698H187.496C187.449 537.954 187.18 537.354 186.688 536.896C186.201 536.439 185.586 536.211 184.842 536.211C183.893 536.211 183.154 536.554 182.627 537.239C182.106 537.925 181.845 538.886 181.845 540.122V540.43C181.845 541.643 182.106 542.589 182.627 543.269C183.154 543.948 183.896 544.288 184.851 544.288ZM190.756 540.104C190.756 539.19 190.932 538.367 191.284 537.635C191.641 536.902 192.142 536.334 192.786 535.93C193.437 535.52 194.172 535.314 194.993 535.314C196.258 535.314 197.284 535.76 198.069 536.65C198.854 537.535 199.246 538.71 199.246 540.175V540.395C199.246 541.314 199.068 542.144 198.71 542.882C198.359 543.614 197.861 544.18 197.216 544.578C196.572 544.977 195.836 545.176 195.01 545.176C193.75 545.176 192.725 544.733 191.934 543.849C191.149 542.958 190.756 541.78 190.756 540.315V540.104ZM191.811 540.395C191.811 541.531 192.104 542.466 192.69 543.198C193.282 543.925 194.055 544.288 195.01 544.288C195.959 544.288 196.727 543.925 197.313 543.198C197.905 542.466 198.201 541.502 198.201 540.307V540.104C198.201 539.378 198.066 538.713 197.796 538.109C197.527 537.506 197.149 537.04 196.662 536.712C196.176 536.378 195.619 536.211 194.993 536.211C194.055 536.211 193.29 536.58 192.699 537.318C192.107 538.051 191.811 539.012 191.811 540.201V540.395ZM203.148 535.49L203.183 537.116C203.541 536.53 203.986 536.085 204.519 535.78C205.052 535.47 205.641 535.314 206.286 535.314C207.305 535.314 208.064 535.602 208.562 536.176C209.06 536.75 209.312 537.611 209.318 538.76V545H208.272V538.751C208.266 537.901 208.085 537.269 207.727 536.853C207.376 536.437 206.81 536.229 206.031 536.229C205.38 536.229 204.803 536.434 204.299 536.844C203.801 537.248 203.432 537.796 203.192 538.487V545H202.146V535.49H203.148ZM213.765 535.49L213.8 537.116C214.157 536.53 214.602 536.085 215.136 535.78C215.669 535.47 216.258 535.314 216.902 535.314C217.922 535.314 218.681 535.602 219.179 536.176C219.677 536.75 219.929 537.611 219.934 538.76V545H218.889V538.751C218.883 537.901 218.701 537.269 218.344 536.853C217.992 536.437 217.427 536.229 216.647 536.229C215.997 536.229 215.42 536.434 214.916 536.844C214.418 537.248 214.049 537.796 213.808 538.487V545H212.763V535.49H213.765ZM227.062 545.176C226.253 545.176 225.521 544.977 224.864 544.578C224.214 544.18 223.707 543.626 223.344 542.917C222.981 542.202 222.799 541.402 222.799 540.518V540.14C222.799 539.226 222.975 538.402 223.326 537.67C223.684 536.938 224.179 536.363 224.812 535.947C225.444 535.525 226.13 535.314 226.868 535.314C228.023 535.314 228.937 535.71 229.611 536.501C230.29 537.286 230.63 538.361 230.63 539.727V540.315H223.845V540.518C223.845 541.596 224.152 542.495 224.768 543.216C225.389 543.931 226.168 544.288 227.106 544.288C227.668 544.288 228.163 544.186 228.591 543.98C229.025 543.775 229.417 543.447 229.769 542.996L230.428 543.497C229.654 544.616 228.532 545.176 227.062 545.176ZM226.868 536.211C226.077 536.211 225.409 536.501 224.864 537.081C224.325 537.661 223.997 538.44 223.88 539.419H229.584V539.305C229.555 538.391 229.294 537.646 228.802 537.072C228.31 536.498 227.665 536.211 226.868 536.211ZM236.914 544.288C237.646 544.288 238.258 544.083 238.75 543.673C239.248 543.257 239.518 542.721 239.559 542.064H240.57C240.54 542.645 240.359 543.175 240.025 543.655C239.691 544.13 239.246 544.502 238.689 544.771C238.138 545.041 237.546 545.176 236.914 545.176C235.665 545.176 234.675 544.742 233.943 543.875C233.216 543.008 232.853 541.842 232.853 540.377V540.061C232.853 539.123 233.017 538.294 233.345 537.573C233.673 536.853 234.142 536.296 234.751 535.903C235.367 535.511 236.084 535.314 236.905 535.314C237.948 535.314 238.806 535.625 239.48 536.246C240.16 536.867 240.523 537.685 240.57 538.698H239.559C239.512 537.954 239.243 537.354 238.75 536.896C238.264 536.439 237.649 536.211 236.905 536.211C235.956 536.211 235.217 536.554 234.69 537.239C234.168 537.925 233.908 538.886 233.908 540.122V540.43C233.908 541.643 234.168 542.589 234.69 543.269C235.217 543.948 235.958 544.288 236.914 544.288ZM245.034 533.056V535.49H247.003V536.352H245.034V542.688C245.034 543.216 245.128 543.608 245.315 543.866C245.509 544.124 245.828 544.253 246.273 544.253C246.449 544.253 246.733 544.224 247.126 544.165L247.17 545.026C246.894 545.126 246.519 545.176 246.045 545.176C245.324 545.176 244.8 544.968 244.471 544.552C244.143 544.13 243.979 543.512 243.979 542.697V536.352H242.23V535.49H243.979V533.056H245.034ZM261.002 545C260.897 544.701 260.829 544.259 260.8 543.673C260.431 544.153 259.959 544.525 259.385 544.789C258.817 545.047 258.213 545.176 257.574 545.176C256.66 545.176 255.919 544.921 255.351 544.411C254.788 543.901 254.507 543.257 254.507 542.478C254.507 541.552 254.891 540.819 255.658 540.28C256.432 539.741 257.507 539.472 258.884 539.472H260.791V538.391C260.791 537.711 260.58 537.178 260.158 536.791C259.742 536.398 259.133 536.202 258.33 536.202C257.598 536.202 256.991 536.39 256.511 536.765C256.031 537.14 255.79 537.591 255.79 538.118L254.736 538.109C254.736 537.354 255.087 536.7 255.79 536.149C256.493 535.593 257.358 535.314 258.383 535.314C259.444 535.314 260.279 535.581 260.888 536.114C261.503 536.642 261.82 537.38 261.837 538.329V542.829C261.837 543.749 261.934 544.438 262.127 544.895V545H261.002ZM257.698 544.244C258.401 544.244 259.028 544.074 259.578 543.734C260.135 543.395 260.539 542.94 260.791 542.372V540.28H258.91C257.862 540.292 257.041 540.485 256.449 540.86C255.858 541.229 255.562 541.739 255.562 542.39C255.562 542.923 255.758 543.365 256.151 543.717C256.549 544.068 257.065 544.244 257.698 544.244ZM266.372 535.49L266.407 537.116C266.764 536.53 267.21 536.085 267.743 535.78C268.276 535.47 268.865 535.314 269.509 535.314C270.529 535.314 271.288 535.602 271.786 536.176C272.284 536.75 272.536 537.611 272.542 538.76V545H271.496V538.751C271.49 537.901 271.308 537.269 270.951 536.853C270.599 536.437 270.034 536.229 269.254 536.229C268.604 536.229 268.027 536.434 267.523 536.844C267.025 537.248 266.656 537.796 266.416 538.487V545H265.37V535.49H266.372ZM275.564 540.157C275.564 538.681 275.892 537.506 276.549 536.633C277.211 535.754 278.107 535.314 279.238 535.314C280.521 535.314 281.5 535.821 282.174 536.835V531.5H283.22V545H282.235L282.191 543.734C281.517 544.695 280.527 545.176 279.221 545.176C278.125 545.176 277.24 544.736 276.566 543.857C275.898 542.973 275.564 541.78 275.564 540.28V540.157ZM276.628 540.342C276.628 541.555 276.871 542.513 277.357 543.216C277.844 543.913 278.529 544.262 279.414 544.262C280.709 544.262 281.629 543.69 282.174 542.548V538.083C281.629 536.847 280.715 536.229 279.431 536.229C278.547 536.229 277.858 536.577 277.366 537.274C276.874 537.966 276.628 538.988 276.628 540.342ZM297.5 542.583C297.5 542.062 297.289 541.643 296.868 541.326C296.452 541.01 295.822 540.764 294.978 540.588C294.134 540.406 293.478 540.201 293.009 539.973C292.546 539.738 292.201 539.454 291.972 539.12C291.749 538.786 291.638 538.382 291.638 537.907C291.638 537.157 291.952 536.539 292.579 536.053C293.205 535.561 294.008 535.314 294.987 535.314C296.047 535.314 296.897 535.578 297.536 536.105C298.18 536.627 298.502 537.31 298.502 538.153H297.448C297.448 537.597 297.213 537.134 296.745 536.765C296.282 536.396 295.696 536.211 294.987 536.211C294.295 536.211 293.739 536.366 293.317 536.677C292.901 536.981 292.693 537.38 292.693 537.872C292.693 538.347 292.866 538.716 293.211 538.979C293.563 539.237 294.199 539.475 295.119 539.691C296.044 539.908 296.736 540.14 297.193 540.386C297.656 540.632 297.998 540.928 298.221 541.273C298.444 541.619 298.555 542.038 298.555 542.53C298.555 543.333 298.23 543.975 297.579 544.455C296.935 544.936 296.091 545.176 295.048 545.176C293.941 545.176 293.041 544.909 292.35 544.376C291.664 543.837 291.322 543.157 291.322 542.337H292.376C292.417 542.952 292.675 543.433 293.15 543.778C293.63 544.118 294.263 544.288 295.048 544.288C295.781 544.288 296.372 544.127 296.824 543.805C297.275 543.482 297.5 543.075 297.5 542.583ZM302.694 537.099C303.04 536.53 303.482 536.091 304.021 535.78C304.56 535.47 305.149 535.314 305.788 535.314C306.807 535.314 307.566 535.602 308.064 536.176C308.562 536.75 308.814 537.611 308.82 538.76V545H307.774V538.751C307.768 537.901 307.587 537.269 307.229 536.853C306.878 536.437 306.312 536.229 305.533 536.229C304.883 536.229 304.305 536.434 303.801 536.844C303.303 537.248 302.934 537.796 302.694 538.487V545H301.648V531.5H302.694V537.099ZM318.25 545C318.145 544.701 318.077 544.259 318.048 543.673C317.679 544.153 317.207 544.525 316.633 544.789C316.064 545.047 315.461 545.176 314.822 545.176C313.908 545.176 313.167 544.921 312.599 544.411C312.036 543.901 311.755 543.257 311.755 542.478C311.755 541.552 312.139 540.819 312.906 540.28C313.68 539.741 314.755 539.472 316.132 539.472H318.039V538.391C318.039 537.711 317.828 537.178 317.406 536.791C316.99 536.398 316.381 536.202 315.578 536.202C314.846 536.202 314.239 536.39 313.759 536.765C313.278 537.14 313.038 537.591 313.038 538.118L311.983 538.109C311.983 537.354 312.335 536.7 313.038 536.149C313.741 535.593 314.605 535.314 315.631 535.314C316.691 535.314 317.526 535.581 318.136 536.114C318.751 536.642 319.067 537.38 319.085 538.329V542.829C319.085 543.749 319.182 544.438 319.375 544.895V545H318.25ZM314.945 544.244C315.648 544.244 316.275 544.074 316.826 543.734C317.383 543.395 317.787 542.94 318.039 542.372V540.28H316.158C315.109 540.292 314.289 540.485 313.697 540.86C313.105 541.229 312.81 541.739 312.81 542.39C312.81 542.923 313.006 543.365 313.398 543.717C313.797 544.068 314.312 544.244 314.945 544.244ZM327.012 536.387C326.789 536.346 326.552 536.325 326.3 536.325C325.644 536.325 325.087 536.51 324.63 536.879C324.179 537.242 323.857 537.772 323.663 538.47V545H322.617V535.49H323.646L323.663 537.002C324.22 535.877 325.114 535.314 326.344 535.314C326.637 535.314 326.868 535.353 327.038 535.429L327.012 536.387ZM332.909 545.176C332.1 545.176 331.368 544.977 330.711 544.578C330.061 544.18 329.554 543.626 329.191 542.917C328.828 542.202 328.646 541.402 328.646 540.518V540.14C328.646 539.226 328.822 538.402 329.173 537.67C329.531 536.938 330.026 536.363 330.659 535.947C331.292 535.525 331.977 535.314 332.715 535.314C333.87 535.314 334.784 535.71 335.458 536.501C336.137 537.286 336.477 538.361 336.477 539.727V540.315H329.692V540.518C329.692 541.596 330 542.495 330.615 543.216C331.236 543.931 332.015 544.288 332.953 544.288C333.515 544.288 334.01 544.186 334.438 543.98C334.872 543.775 335.264 543.447 335.616 542.996L336.275 543.497C335.501 544.616 334.379 545.176 332.909 545.176ZM332.715 536.211C331.924 536.211 331.256 536.501 330.711 537.081C330.172 537.661 329.844 538.44 329.727 539.419H335.431V539.305C335.402 538.391 335.141 537.646 334.649 537.072C334.157 536.498 333.512 536.211 332.715 536.211ZM23.5488 566H22.4941V556.49H23.5488V566ZM22.3096 553.739C22.3096 553.54 22.374 553.373 22.5029 553.238C22.6318 553.098 22.8076 553.027 23.0303 553.027C23.2529 553.027 23.4287 553.098 23.5576 553.238C23.6924 553.373 23.7598 553.54 23.7598 553.739C23.7598 553.938 23.6924 554.105 23.5576 554.24C23.4287 554.375 23.2529 554.442 23.0303 554.442C22.8076 554.442 22.6318 554.375 22.5029 554.24C22.374 554.105 22.3096 553.938 22.3096 553.739ZM26.7122 561.157C26.7122 559.681 27.0403 558.506 27.6966 557.633C28.3587 556.754 29.2552 556.314 30.386 556.314C31.6692 556.314 32.6477 556.821 33.3216 557.835V552.5H34.3675V566H33.3831L33.3391 564.734C32.6653 565.695 31.6751 566.176 30.3684 566.176C29.2727 566.176 28.388 565.736 27.7141 564.857C27.0462 563.973 26.7122 562.78 26.7122 561.28V561.157ZM27.7757 561.342C27.7757 562.555 28.0188 563.513 28.5052 564.216C28.9915 564.913 29.677 565.262 30.5618 565.262C31.8567 565.262 32.7766 564.69 33.3216 563.548V559.083C32.7766 557.847 31.8626 557.229 30.5794 557.229C29.6946 557.229 29.0061 557.577 28.5139 558.274C28.0218 558.966 27.7757 559.988 27.7757 561.342ZM41.5386 566.176C40.73 566.176 39.9976 565.977 39.3414 565.578C38.691 565.18 38.1841 564.626 37.8209 563.917C37.4576 563.202 37.2759 562.402 37.2759 561.518V561.14C37.2759 560.226 37.4517 559.402 37.8033 558.67C38.1607 557.938 38.6558 557.363 39.2886 556.947C39.9214 556.525 40.607 556.314 41.3453 556.314C42.4996 556.314 43.4136 556.71 44.0875 557.501C44.7671 558.286 45.107 559.361 45.107 560.727V561.315H38.3218V561.518C38.3218 562.596 38.6295 563.495 39.2447 564.216C39.8658 564.931 40.6451 565.288 41.5826 565.288C42.1451 565.288 42.6402 565.186 43.0679 564.98C43.5015 564.775 43.8941 564.447 44.2457 563.996L44.9048 564.497C44.1314 565.616 43.0093 566.176 41.5386 566.176ZM41.3453 557.211C40.5543 557.211 39.8863 557.501 39.3414 558.081C38.8023 558.661 38.4742 559.44 38.357 560.419H44.0611V560.305C44.0318 559.391 43.7711 558.646 43.2789 558.072C42.7867 557.498 42.1421 557.211 41.3453 557.211ZM53.8778 566C53.7723 565.701 53.7049 565.259 53.6756 564.673C53.3065 565.153 52.8348 565.525 52.2606 565.789C51.6922 566.047 51.0887 566.176 50.45 566.176C49.536 566.176 48.7948 565.921 48.2264 565.411C47.6639 564.901 47.3827 564.257 47.3827 563.478C47.3827 562.552 47.7664 561.819 48.534 561.28C49.3075 560.741 50.3827 560.472 51.7596 560.472H53.6668V559.391C53.6668 558.711 53.4559 558.178 53.034 557.791C52.618 557.398 52.0086 557.202 51.2059 557.202C50.4735 557.202 49.867 557.39 49.3866 557.765C48.9061 558.14 48.6659 558.591 48.6659 559.118L47.6112 559.109C47.6112 558.354 47.9627 557.7 48.6659 557.149C49.369 556.593 50.2332 556.314 51.2586 556.314C52.3192 556.314 53.1541 556.581 53.7635 557.114C54.3787 557.642 54.6952 558.38 54.7127 559.329V563.829C54.7127 564.749 54.8094 565.438 55.0028 565.895V566H53.8778ZM50.5731 565.244C51.2762 565.244 51.9032 565.074 52.4539 564.734C53.0106 564.395 53.4149 563.94 53.6668 563.372V561.28H51.786C50.7371 561.292 49.9168 561.485 49.325 561.86C48.7332 562.229 48.4373 562.739 48.4373 563.39C48.4373 563.923 48.6336 564.365 49.0262 564.717C49.4246 565.068 49.9403 565.244 50.5731 565.244ZM63.9405 563.583C63.9405 563.062 63.7296 562.643 63.3077 562.326C62.8917 562.01 62.2618 561.764 61.4181 561.588C60.5743 561.406 59.9181 561.201 59.4493 560.973C58.9864 560.738 58.6407 560.454 58.4122 560.12C58.1896 559.786 58.0782 559.382 58.0782 558.907C58.0782 558.157 58.3917 557.539 59.0187 557.053C59.6456 556.561 60.4484 556.314 61.4269 556.314C62.4874 556.314 63.337 556.578 63.9757 557.105C64.6202 557.627 64.9425 558.31 64.9425 559.153H63.8878C63.8878 558.597 63.6534 558.134 63.1847 557.765C62.7218 557.396 62.1359 557.211 61.4269 557.211C60.7355 557.211 60.1788 557.366 59.757 557.677C59.3409 557.981 59.1329 558.38 59.1329 558.872C59.1329 559.347 59.3058 559.716 59.6515 559.979C60.003 560.237 60.6388 560.475 61.5587 560.691C62.4845 560.908 63.1759 561.14 63.6329 561.386C64.0958 561.632 64.4386 561.928 64.6613 562.273C64.8839 562.619 64.9952 563.038 64.9952 563.53C64.9952 564.333 64.67 564.975 64.0196 565.455C63.3751 565.936 62.5314 566.176 61.4884 566.176C60.381 566.176 59.4816 565.909 58.7902 565.376C58.1046 564.837 57.7618 564.157 57.7618 563.337H58.8165C58.8575 563.952 59.1154 564.433 59.59 564.778C60.0704 565.118 60.7032 565.288 61.4884 565.288C62.2208 565.288 62.8126 565.127 63.2638 564.805C63.715 564.482 63.9405 564.075 63.9405 563.583ZM79.1882 566C79.0827 565.701 79.0153 565.259 78.986 564.673C78.6169 565.153 78.1452 565.525 77.571 565.789C77.0026 566.047 76.3991 566.176 75.7604 566.176C74.8464 566.176 74.1052 565.921 73.5368 565.411C72.9743 564.901 72.693 564.257 72.693 563.478C72.693 562.552 73.0768 561.819 73.8444 561.28C74.6179 560.741 75.693 560.472 77.07 560.472H78.9772V559.391C78.9772 558.711 78.7663 558.178 78.3444 557.791C77.9284 557.398 77.319 557.202 76.5163 557.202C75.7839 557.202 75.1774 557.39 74.697 557.765C74.2165 558.14 73.9762 558.591 73.9762 559.118L72.9216 559.109C72.9216 558.354 73.2731 557.7 73.9762 557.149C74.6794 556.593 75.5436 556.314 76.569 556.314C77.6296 556.314 78.4645 556.581 79.0739 557.114C79.6891 557.642 80.0055 558.38 80.0231 559.329V563.829C80.0231 564.749 80.1198 565.438 80.3132 565.895V566H79.1882ZM75.8835 565.244C76.5866 565.244 77.2136 565.074 77.7643 564.734C78.321 564.395 78.7253 563.94 78.9772 563.372V561.28H77.0964C76.0475 561.292 75.2272 561.485 74.6354 561.86C74.0436 562.229 73.7477 562.739 73.7477 563.39C73.7477 563.923 73.944 564.365 74.3366 564.717C74.735 565.068 75.2507 565.244 75.8835 565.244ZM84.5576 556.49L84.5927 558.116C84.9502 557.53 85.3955 557.085 85.9287 556.78C86.4619 556.47 87.0507 556.314 87.6953 556.314C88.7148 556.314 89.4736 556.602 89.9716 557.176C90.4697 557.75 90.7216 558.611 90.7275 559.76V566H89.6816V559.751C89.6757 558.901 89.4941 558.269 89.1367 557.853C88.7851 557.437 88.2197 557.229 87.4404 557.229C86.79 557.229 86.2129 557.434 85.7089 557.844C85.2109 558.248 84.8418 558.796 84.6015 559.487V566H83.5556V556.49H84.5576ZM93.7502 561.157C93.7502 559.681 94.0784 558.506 94.7346 557.633C95.3967 556.754 96.2932 556.314 97.4241 556.314C98.7073 556.314 99.6858 556.821 100.36 557.835V552.5H101.406V566H100.421L100.377 564.734C99.7034 565.695 98.7131 566.176 97.4065 566.176C96.3108 566.176 95.426 565.736 94.7522 564.857C94.0842 563.973 93.7502 562.78 93.7502 561.28V561.157ZM94.8137 561.342C94.8137 562.555 95.0569 563.513 95.5432 564.216C96.0295 564.913 96.7151 565.262 97.5998 565.262C98.8948 565.262 99.8147 564.69 100.36 563.548V559.083C99.8147 557.847 98.9006 557.229 97.6174 557.229C96.7327 557.229 96.0442 557.577 95.552 558.274C95.0598 558.966 94.8137 559.988 94.8137 561.342ZM117.637 561.342C117.637 562.824 117.309 564.002 116.653 564.875C115.997 565.742 115.118 566.176 114.016 566.176C112.716 566.176 111.72 565.719 111.028 564.805V569.656H109.982V556.49H110.958L111.011 557.835C111.696 556.821 112.689 556.314 113.99 556.314C115.127 556.314 116.017 556.745 116.662 557.606C117.312 558.468 117.637 559.663 117.637 561.192V561.342ZM116.583 561.157C116.583 559.944 116.334 558.986 115.836 558.283C115.338 557.58 114.643 557.229 113.753 557.229C113.108 557.229 112.554 557.384 112.092 557.694C111.629 558.005 111.274 558.456 111.028 559.048V563.609C111.28 564.154 111.64 564.57 112.109 564.857C112.578 565.145 113.132 565.288 113.77 565.288C114.655 565.288 115.344 564.937 115.836 564.233C116.334 563.524 116.583 562.499 116.583 561.157ZM125.09 557.387C124.867 557.346 124.63 557.325 124.378 557.325C123.722 557.325 123.165 557.51 122.708 557.879C122.257 558.242 121.935 558.772 121.741 559.47V566H120.695V556.49H121.724L121.741 558.002C122.298 556.877 123.191 556.314 124.422 556.314C124.715 556.314 124.946 556.353 125.116 556.429L125.09 557.387ZM126.724 561.104C126.724 560.19 126.9 559.367 127.251 558.635C127.609 557.902 128.11 557.334 128.754 556.93C129.405 556.52 130.14 556.314 130.96 556.314C132.226 556.314 133.251 556.76 134.036 557.65C134.822 558.535 135.214 559.71 135.214 561.175V561.395C135.214 562.314 135.036 563.144 134.678 563.882C134.327 564.614 133.828 565.18 133.184 565.578C132.539 565.977 131.804 566.176 130.978 566.176C129.718 566.176 128.693 565.733 127.902 564.849C127.117 563.958 126.724 562.78 126.724 561.315V561.104ZM127.779 561.395C127.779 562.531 128.072 563.466 128.658 564.198C129.249 564.925 130.023 565.288 130.978 565.288C131.927 565.288 132.695 564.925 133.281 564.198C133.872 563.466 134.168 562.502 134.168 561.307V561.104C134.168 560.378 134.034 559.713 133.764 559.109C133.494 558.506 133.117 558.04 132.63 557.712C132.144 557.378 131.587 557.211 130.96 557.211C130.023 557.211 129.258 557.58 128.666 558.318C128.075 559.051 127.779 560.012 127.779 561.201V561.395ZM139.248 556.49V567.134C139.248 568.013 139.037 568.684 138.615 569.146C138.193 569.609 137.572 569.841 136.752 569.841C136.435 569.841 136.128 569.785 135.829 569.674L135.846 568.804C136.104 568.88 136.368 568.918 136.637 568.918C137.68 568.918 138.202 568.317 138.202 567.116V556.49H139.248ZM138.729 553.027C138.958 553.027 139.136 553.098 139.265 553.238C139.394 553.373 139.459 553.54 139.459 553.739C139.459 553.938 139.394 554.105 139.265 554.24C139.136 554.375 138.958 554.442 138.729 554.442C138.506 554.442 138.331 554.375 138.202 554.24C138.079 554.105 138.017 553.938 138.017 553.739C138.017 553.54 138.079 553.373 138.202 553.238C138.331 553.098 138.506 553.027 138.729 553.027ZM146.63 566.176C145.821 566.176 145.089 565.977 144.433 565.578C143.782 565.18 143.275 564.626 142.912 563.917C142.549 563.202 142.367 562.402 142.367 561.518V561.14C142.367 560.226 142.543 559.402 142.894 558.67C143.252 557.938 143.747 557.363 144.38 556.947C145.013 556.525 145.698 556.314 146.436 556.314C147.591 556.314 148.505 556.71 149.179 557.501C149.858 558.286 150.198 559.361 150.198 560.727V561.315H143.413V561.518C143.413 562.596 143.721 563.495 144.336 564.216C144.957 564.931 145.736 565.288 146.674 565.288C147.236 565.288 147.731 565.186 148.159 564.98C148.593 564.775 148.985 564.447 149.337 563.996L149.996 564.497C149.223 565.616 148.101 566.176 146.63 566.176ZM146.436 557.211C145.645 557.211 144.977 557.501 144.433 558.081C143.893 558.661 143.565 559.44 143.448 560.419H149.152V560.305C149.123 559.391 148.862 558.646 148.37 558.072C147.878 557.498 147.233 557.211 146.436 557.211ZM156.482 565.288C157.214 565.288 157.826 565.083 158.319 564.673C158.817 564.257 159.086 563.721 159.127 563.064H160.138C160.109 563.645 159.927 564.175 159.593 564.655C159.259 565.13 158.814 565.502 158.257 565.771C157.706 566.041 157.114 566.176 156.482 566.176C155.234 566.176 154.243 565.742 153.511 564.875C152.784 564.008 152.421 562.842 152.421 561.377V561.061C152.421 560.123 152.585 559.294 152.913 558.573C153.241 557.853 153.71 557.296 154.32 556.903C154.935 556.511 155.653 556.314 156.473 556.314C157.516 556.314 158.374 556.625 159.048 557.246C159.728 557.867 160.091 558.685 160.138 559.698H159.127C159.08 558.954 158.811 558.354 158.319 557.896C157.832 557.439 157.217 557.211 156.473 557.211C155.524 557.211 154.785 557.554 154.258 558.239C153.737 558.925 153.476 559.886 153.476 561.122V561.43C153.476 562.643 153.737 563.589 154.258 564.269C154.785 564.948 155.527 565.288 156.482 565.288ZM164.602 554.056V556.49H166.571V557.352H164.602V563.688C164.602 564.216 164.696 564.608 164.883 564.866C165.077 565.124 165.396 565.253 165.841 565.253C166.017 565.253 166.301 565.224 166.694 565.165L166.738 566.026C166.462 566.126 166.087 566.176 165.613 566.176C164.892 566.176 164.368 565.968 164.04 565.552C163.711 565.13 163.547 564.512 163.547 563.697V557.352H161.798V556.49H163.547V554.056H164.602ZM175.166 563.583C175.166 563.062 174.955 562.643 174.533 562.326C174.117 562.01 173.487 561.764 172.643 561.588C171.8 561.406 171.143 561.201 170.675 560.973C170.212 560.738 169.866 560.454 169.637 560.12C169.415 559.786 169.303 559.382 169.303 558.907C169.303 558.157 169.617 557.539 170.244 557.053C170.871 556.561 171.674 556.314 172.652 556.314C173.713 556.314 174.562 556.578 175.201 557.105C175.845 557.627 176.168 558.31 176.168 559.153H175.113C175.113 558.597 174.879 558.134 174.41 557.765C173.947 557.396 173.361 557.211 172.652 557.211C171.961 557.211 171.404 557.366 170.982 557.677C170.566 557.981 170.358 558.38 170.358 558.872C170.358 559.347 170.531 559.716 170.877 559.979C171.228 560.237 171.864 560.475 172.784 560.691C173.71 560.908 174.401 561.14 174.858 561.386C175.321 561.632 175.664 561.928 175.886 562.273C176.109 562.619 176.22 563.038 176.22 563.53C176.22 564.333 175.895 564.975 175.245 565.455C174.6 565.936 173.757 566.176 172.714 566.176C171.606 566.176 170.707 565.909 170.015 565.376C169.33 564.837 168.987 564.157 168.987 563.337H170.042C170.083 563.952 170.341 564.433 170.815 564.778C171.296 565.118 171.928 565.288 172.714 565.288C173.446 565.288 174.038 565.127 174.489 564.805C174.94 564.482 175.166 564.075 175.166 563.583ZM186.687 563.812L186.845 564.629L187.056 563.768L189.341 556.49H190.238L192.496 563.706L192.743 564.708L192.945 563.785L194.896 556.49H195.986L193.217 566H192.321L189.877 558.459L189.763 557.94L189.649 558.468L187.249 566H186.353L183.593 556.49H184.674L186.687 563.812ZM199.879 566H198.824V556.49H199.879V566ZM198.639 553.739C198.639 553.54 198.704 553.373 198.833 553.238C198.962 553.098 199.137 553.027 199.36 553.027C199.583 553.027 199.758 553.098 199.887 553.238C200.022 553.373 200.089 553.54 200.089 553.739C200.089 553.938 200.022 554.105 199.887 554.24C199.758 554.375 199.583 554.442 199.36 554.442C199.137 554.442 198.962 554.375 198.833 554.24C198.704 554.105 198.639 553.938 198.639 553.739ZM205.099 554.056V556.49H207.067V557.352H205.099V563.688C205.099 564.216 205.192 564.608 205.38 564.866C205.573 565.124 205.892 565.253 206.338 565.253C206.514 565.253 206.798 565.224 207.19 565.165L207.234 566.026C206.959 566.126 206.584 566.176 206.109 566.176C205.389 566.176 204.864 565.968 204.536 565.552C204.208 565.13 204.044 564.512 204.044 563.697V557.352H202.295V556.49H204.044V554.056H205.099ZM211.013 558.099C211.359 557.53 211.801 557.091 212.34 556.78C212.879 556.47 213.468 556.314 214.107 556.314C215.126 556.314 215.885 556.602 216.383 557.176C216.881 557.75 217.133 558.611 217.139 559.76V566H216.093V559.751C216.087 558.901 215.905 558.269 215.548 557.853C215.196 557.437 214.631 557.229 213.852 557.229C213.201 557.229 212.624 557.434 212.12 557.844C211.622 558.248 211.253 558.796 211.013 559.487V566H209.967V552.5H211.013V558.099ZM228.677 564.488L231.455 556.49H232.589L228.528 567.617L228.317 568.109C227.796 569.264 226.99 569.841 225.9 569.841C225.648 569.841 225.379 569.8 225.092 569.718L225.083 568.848L225.628 568.9C226.143 568.9 226.559 568.771 226.876 568.514C227.198 568.262 227.47 567.825 227.693 567.204L228.159 565.921L224.573 556.49H225.724L228.677 564.488ZM234.223 561.104C234.223 560.19 234.398 559.367 234.75 558.635C235.107 557.902 235.608 557.334 236.253 556.93C236.903 556.52 237.639 556.314 238.459 556.314C239.725 556.314 240.75 556.76 241.535 557.65C242.32 558.535 242.713 559.71 242.713 561.175V561.395C242.713 562.314 242.534 563.144 242.177 563.882C241.825 564.614 241.327 565.18 240.683 565.578C240.038 565.977 239.303 566.176 238.477 566.176C237.217 566.176 236.191 565.733 235.4 564.849C234.615 563.958 234.223 562.78 234.223 561.315V561.104ZM235.277 561.395C235.277 562.531 235.57 563.466 236.156 564.198C236.748 564.925 237.521 565.288 238.477 565.288C239.426 565.288 240.193 564.925 240.779 564.198C241.371 563.466 241.667 562.502 241.667 561.307V561.104C241.667 560.378 241.532 559.713 241.263 559.109C240.993 558.506 240.615 558.04 240.129 557.712C239.643 557.378 239.086 557.211 238.459 557.211C237.521 557.211 236.757 557.58 236.165 558.318C235.573 559.051 235.277 560.012 235.277 561.201V561.395ZM251.73 564.796C251.097 565.716 250.086 566.176 248.698 566.176C247.684 566.176 246.913 565.883 246.386 565.297C245.859 564.705 245.589 563.832 245.577 562.678V556.49H246.623V562.546C246.623 564.356 247.356 565.262 248.821 565.262C250.344 565.262 251.308 564.632 251.712 563.372V556.49H252.767V566H251.747L251.73 564.796ZM260.624 557.387C260.401 557.346 260.164 557.325 259.912 557.325C259.255 557.325 258.699 557.51 258.242 557.879C257.791 558.242 257.468 558.772 257.275 559.47V566H256.229V556.49H257.257L257.275 558.002C257.832 556.877 258.725 556.314 259.956 556.314C260.249 556.314 260.48 556.353 260.65 556.429L260.624 557.387ZM271.626 565.288C272.359 565.288 272.971 565.083 273.463 564.673C273.961 564.257 274.231 563.721 274.272 563.064H275.282C275.253 563.645 275.071 564.175 274.737 564.655C274.403 565.13 273.958 565.502 273.401 565.771C272.851 566.041 272.259 566.176 271.626 566.176C270.378 566.176 269.388 565.742 268.655 564.875C267.929 564.008 267.566 562.842 267.566 561.377V561.061C267.566 560.123 267.73 559.294 268.058 558.573C268.386 557.853 268.855 557.296 269.464 556.903C270.079 556.511 270.797 556.314 271.617 556.314C272.66 556.314 273.519 556.625 274.193 557.246C274.872 557.867 275.235 558.685 275.282 559.698H274.272C274.225 558.954 273.955 558.354 273.463 557.896C272.977 557.439 272.361 557.211 271.617 557.211C270.668 557.211 269.93 557.554 269.402 558.239C268.881 558.925 268.62 559.886 268.62 561.122V561.43C268.62 562.643 268.881 563.589 269.402 564.269C269.93 564.948 270.671 565.288 271.626 565.288ZM277.532 561.104C277.532 560.19 277.707 559.367 278.059 558.635C278.416 557.902 278.917 557.334 279.562 556.93C280.212 556.52 280.948 556.314 281.768 556.314C283.034 556.314 284.059 556.76 284.844 557.65C285.629 558.535 286.022 559.71 286.022 561.175V561.395C286.022 562.314 285.843 563.144 285.486 563.882C285.134 564.614 284.636 565.18 283.992 565.578C283.347 565.977 282.612 566.176 281.786 566.176C280.526 566.176 279.5 565.733 278.709 564.849C277.924 563.958 277.532 562.78 277.532 561.315V561.104ZM278.586 561.395C278.586 562.531 278.879 563.466 279.465 564.198C280.057 564.925 280.83 565.288 281.786 565.288C282.735 565.288 283.502 564.925 284.088 564.198C284.68 563.466 284.976 562.502 284.976 561.307V561.104C284.976 560.378 284.841 559.713 284.572 559.109C284.302 558.506 283.924 558.04 283.438 557.712C282.952 557.378 282.395 557.211 281.768 557.211C280.83 557.211 280.066 557.58 279.474 558.318C278.882 559.051 278.586 560.012 278.586 561.201V561.395ZM290.099 566H289.045V552.5H290.099V566ZM294.862 566H293.808V552.5H294.862V566ZM302.13 566.176C301.322 566.176 300.589 565.977 299.933 565.578C299.282 565.18 298.776 564.626 298.412 563.917C298.049 563.202 297.867 562.402 297.867 561.518V561.14C297.867 560.226 298.043 559.402 298.395 558.67C298.752 557.938 299.247 557.363 299.88 556.947C300.513 556.525 301.198 556.314 301.937 556.314C303.091 556.314 304.005 556.71 304.679 557.501C305.359 558.286 305.698 559.361 305.698 560.727V561.315H298.913V561.518C298.913 562.596 299.221 563.495 299.836 564.216C300.457 564.931 301.237 565.288 302.174 565.288C302.737 565.288 303.232 565.186 303.659 564.98C304.093 564.775 304.486 564.447 304.837 563.996L305.496 564.497C304.723 565.616 303.601 566.176 302.13 566.176ZM301.937 557.211C301.146 557.211 300.478 557.501 299.933 558.081C299.394 558.661 299.066 559.44 298.948 560.419H304.653V560.305C304.623 559.391 304.363 558.646 303.87 558.072C303.378 557.498 302.734 557.211 301.937 557.211ZM314.469 566C314.364 565.701 314.296 565.259 314.267 564.673C313.898 565.153 313.426 565.525 312.852 565.789C312.284 566.047 311.68 566.176 311.042 566.176C310.127 566.176 309.386 565.921 308.818 565.411C308.255 564.901 307.974 564.257 307.974 563.478C307.974 562.552 308.358 561.819 309.126 561.28C309.899 560.741 310.974 560.472 312.351 560.472H314.258V559.391C314.258 558.711 314.047 558.178 313.626 557.791C313.21 557.398 312.6 557.202 311.797 557.202C311.065 557.202 310.459 557.39 309.978 557.765C309.498 558.14 309.257 558.591 309.257 559.118L308.203 559.109C308.203 558.354 308.554 557.7 309.257 557.149C309.96 556.593 310.825 556.314 311.85 556.314C312.911 556.314 313.746 556.581 314.355 557.114C314.97 557.642 315.287 558.38 315.304 559.329V563.829C315.304 564.749 315.401 565.438 315.594 565.895V566H314.469ZM311.165 565.244C311.868 565.244 312.495 565.074 313.045 564.734C313.602 564.395 314.006 563.94 314.258 563.372V561.28H312.377C311.329 561.292 310.508 561.485 309.917 561.86C309.325 562.229 309.029 562.739 309.029 563.39C309.029 563.923 309.225 564.365 309.618 564.717C310.016 565.068 310.532 565.244 311.165 565.244ZM318.415 561.157C318.415 559.669 318.743 558.491 319.399 557.624C320.061 556.751 320.958 556.314 322.089 556.314C323.384 556.314 324.368 556.83 325.042 557.861L325.095 556.49H326.079V565.807C326.079 567.031 325.736 568.001 325.051 568.716C324.365 569.431 323.436 569.788 322.264 569.788C321.602 569.788 320.97 569.639 320.366 569.34C319.768 569.047 319.297 568.654 318.951 568.162L319.54 567.529C320.284 568.443 321.169 568.9 322.194 568.9C323.073 568.9 323.759 568.64 324.251 568.118C324.743 567.603 324.998 566.885 325.015 565.965V564.77C324.342 565.707 323.36 566.176 322.071 566.176C320.97 566.176 320.085 565.736 319.417 564.857C318.749 563.979 318.415 562.792 318.415 561.298V561.157ZM319.478 561.342C319.478 562.555 319.721 563.513 320.208 564.216C320.694 564.913 321.38 565.262 322.264 565.262C323.559 565.262 324.476 564.682 325.015 563.521V559.101C324.769 558.491 324.415 558.028 323.952 557.712C323.489 557.39 322.932 557.229 322.282 557.229C321.397 557.229 320.709 557.577 320.217 558.274C319.724 558.966 319.478 559.988 319.478 561.342ZM335.658 564.796C335.025 565.716 334.015 566.176 332.626 566.176C331.612 566.176 330.842 565.883 330.315 565.297C329.787 564.705 329.518 563.832 329.506 562.678V556.49H330.552V562.546C330.552 564.356 331.284 565.262 332.749 565.262C334.273 565.262 335.236 564.632 335.641 563.372V556.49H336.695V566H335.676L335.658 564.796ZM343.84 566.176C343.032 566.176 342.299 565.977 341.643 565.578C340.993 565.18 340.486 564.626 340.122 563.917C339.759 563.202 339.578 562.402 339.578 561.518V561.14C339.578 560.226 339.753 559.402 340.105 558.67C340.462 557.938 340.957 557.363 341.59 556.947C342.223 556.525 342.909 556.314 343.647 556.314C344.801 556.314 345.715 556.71 346.389 557.501C347.069 558.286 347.409 559.361 347.409 560.727V561.315H340.623V561.518C340.623 562.596 340.931 563.495 341.546 564.216C342.167 564.931 342.947 565.288 343.884 565.288C344.447 565.288 344.942 565.186 345.37 564.98C345.803 564.775 346.196 564.447 346.547 563.996L347.206 564.497C346.433 565.616 345.311 566.176 343.84 566.176ZM343.647 557.211C342.856 557.211 342.188 557.501 341.643 558.081C341.104 558.661 340.776 559.44 340.659 560.419H346.363V560.305C346.333 559.391 346.073 558.646 345.58 558.072C345.088 557.498 344.444 557.211 343.647 557.211ZM355.872 563.583C355.872 563.062 355.661 562.643 355.239 562.326C354.823 562.01 354.193 561.764 353.349 561.588C352.506 561.406 351.849 561.201 351.381 560.973C350.918 560.738 350.572 560.454 350.343 560.12C350.121 559.786 350.009 559.382 350.009 558.907C350.009 558.157 350.323 557.539 350.95 557.053C351.577 556.561 352.38 556.314 353.358 556.314C354.419 556.314 355.268 556.578 355.907 557.105C356.551 557.627 356.874 558.31 356.874 559.153H355.819C355.819 558.597 355.585 558.134 355.116 557.765C354.653 557.396 354.067 557.211 353.358 557.211C352.667 557.211 352.11 557.366 351.688 557.677C351.272 557.981 351.064 558.38 351.064 558.872C351.064 559.347 351.237 559.716 351.583 559.979C351.934 560.237 352.57 560.475 353.49 560.691C354.416 560.908 355.107 561.14 355.564 561.386C356.027 561.632 356.37 561.928 356.592 562.273C356.815 562.619 356.926 563.038 356.926 563.53C356.926 564.333 356.601 564.975 355.951 565.455C355.306 565.936 354.463 566.176 353.42 566.176C352.312 566.176 351.413 565.909 350.721 565.376C350.036 564.837 349.693 564.157 349.693 563.337H350.748C350.789 563.952 351.047 564.433 351.521 564.778C352.002 565.118 352.634 565.288 353.42 565.288C354.152 565.288 354.744 565.127 355.195 564.805C355.646 564.482 355.872 564.075 355.872 563.583ZM359.923 565.367C359.923 565.162 359.987 564.989 360.116 564.849C360.251 564.702 360.435 564.629 360.67 564.629C360.904 564.629 361.089 564.702 361.224 564.849C361.358 564.989 361.426 565.162 361.426 565.367C361.426 565.572 361.358 565.742 361.224 565.877C361.089 566.006 360.904 566.07 360.67 566.07C360.435 566.07 360.251 566.006 360.116 565.877C359.987 565.742 359.923 565.572 359.923 565.367Z" fill="black" fill-opacity="0.8"/>
<path d="M484.157 150H155V332.322H484.157V150Z" fill="#F9F9F9"/>
<path d="M212.587 175.555L190.814 197.056L212.587 218.556L217.486 213.657L201.022 197.191L217.624 180.589L212.587 175.555Z" fill="#FF6392"/>
<path d="M230.427 175.555L252.199 197.056L230.427 218.556L225.528 213.657L241.993 197.191L225.39 180.589L230.427 175.555Z" fill="#FF6392"/>
<path d="M300.852 180.95C299.071 180.95 297.628 181.975 297.628 183.238C297.628 184.501 299.071 185.525 300.852 185.525H452.851C454.632 185.525 456.076 184.501 456.076 183.238C456.076 181.975 454.632 180.95 452.851 180.95H300.852Z" fill="#E6E6E6"/>
<path d="M451.34 306.265H195.64C193.026 306.265 190.908 304.756 190.905 302.897V257.766C190.908 255.907 193.026 254.398 195.64 254.398H451.34C453.954 254.398 456.072 255.907 456.075 257.766V302.896C456.073 304.756 453.954 306.263 451.34 306.265ZM195.64 255.744C194.071 255.744 192.8 256.65 192.799 257.765V302.895C192.799 304.011 194.071 304.915 195.64 304.916H451.34C452.908 304.916 454.179 304.011 454.181 302.895V257.766C454.181 256.651 452.908 255.746 451.34 255.745L195.64 255.744Z" fill="#E6E6E6"/>
<path d="M221.971 291.752C228.289 291.752 233.411 286.63 233.411 280.312C233.411 273.994 228.289 268.872 221.971 268.872C215.653 268.872 210.531 273.994 210.531 280.312C210.531 286.63 215.653 291.752 221.971 291.752Z" fill="#E6E6E6"/>
<path d="M254.236 271.163C253.63 271.162 253.047 271.402 252.618 271.831C252.188 272.259 251.947 272.841 251.946 273.447C251.945 274.054 252.185 274.636 252.614 275.066C253.042 275.495 253.624 275.737 254.23 275.738H362.069C362.676 275.738 363.258 275.497 363.687 275.068C364.116 274.639 364.357 274.057 364.357 273.45C364.357 272.844 364.116 272.262 363.687 271.833C363.258 271.404 362.676 271.163 362.069 271.163H254.236Z" fill="#5AA9E6"/>
<path d="M254.236 284.887C253.936 284.887 253.638 284.946 253.361 285.06C253.083 285.175 252.831 285.343 252.618 285.555C252.188 285.984 251.947 286.565 251.946 287.172C251.945 287.778 252.185 288.36 252.614 288.79C253.042 289.219 253.624 289.461 254.23 289.462H300.636C301.243 289.463 301.825 289.222 302.255 288.794C302.684 288.366 302.926 287.784 302.927 287.178C302.927 286.571 302.687 285.989 302.259 285.559C301.83 285.13 301.249 284.888 300.642 284.887H254.236Z" fill="#5AA9E6"/>
<path d="M299.742 194.654C299.167 194.7 298.631 194.961 298.24 195.385C297.849 195.809 297.632 196.364 297.632 196.941C297.632 197.518 297.849 198.073 298.24 198.497C298.631 198.921 299.167 199.182 299.742 199.228H399.359C399.933 199.182 400.47 198.921 400.861 198.497C401.252 198.073 401.469 197.518 401.469 196.941C401.469 196.364 401.252 195.809 400.861 195.385C400.47 194.961 399.933 194.7 399.359 194.654H299.742Z" fill="#E6E6E6"/>
<path d="M300.398 208.357C298.868 208.357 297.628 209.381 297.628 210.644C297.628 211.907 298.868 212.931 300.398 212.931H430.978C432.507 212.931 433.747 211.907 433.747 210.644C433.747 209.381 432.507 208.357 430.978 208.357H300.398Z" fill="#E6E6E6"/>
</g>
<defs>
<clipPath id="clip0">
<rect width="690" height="566" fill="white"/>
</clipPath>
</defs>
</svg>
